<svg xmlns="http://www.w3.org/2000/svg" xmlns:xlink="http://www.w3.org/1999/xlink" width="1046" height="1080" viewBox="0 0 1046 1080">
  <defs>
    <clipPath id="clip-path">
      <rect width="24" height="18" fill="none"/>
    </clipPath>
    <clipPath id="clip-path-2">
      <rect width="508" height="363" fill="none"/>
    </clipPath>
    <clipPath id="clip-path-4">
      <rect width="202" height="111" fill="none"/>
    </clipPath>
    <linearGradient id="linear-gradient" x1="1" y1="1" x2="0" y2="1" gradientUnits="objectBoundingBox">
      <stop offset="0" stop-color="#290c2d"/>
      <stop offset="1" stop-color="#290c2d" stop-opacity="0"/>
    </linearGradient>
  </defs>
  <g id="Raggruppa_8" data-name="Raggruppa 8" transform="translate(-877)">
    <g id="Raggruppa_7" data-name="Raggruppa 7">
      <g id="Componente_1_1" data-name="Componente 1 – 1" transform="translate(1247 449)">
        <g id="Griglia_di_ripetizione_1" data-name="Griglia di ripetizione 1" clip-path="url(#clip-path)">
          <g transform="translate(-1260 -454)">
            <rect id="Rettangolo_21" data-name="Rettangolo 21" width="24" height="2" rx="1" transform="translate(1260 454)" fill="#fff"/>
          </g>
          <g transform="translate(-1260 -446)">
            <rect id="Rettangolo_21-2" data-name="Rettangolo 21" width="24" height="2" rx="1" transform="translate(1260 454)" fill="#fff"/>
          </g>
          <g transform="translate(-1260 -438)">
            <rect id="Rettangolo_21-3" data-name="Rettangolo 21" width="24" height="2" rx="1" transform="translate(1260 454)" fill="#fff"/>
          </g>
        </g>
      </g>
      <g id="pc">
        <g id="Rettangolo_26" data-name="Rettangolo 26" transform="translate(1348 260)" fill="#290c2d" stroke="#cecece" stroke-width="1" opacity="0.53">
          <rect width="572" height="432" rx="36" stroke="none"/>
          <rect x="0.5" y="0.5" width="571" height="431" rx="35.5" fill="none"/>
        </g>
        <g id="Card_Desktop" data-name="Card Desktop" transform="translate(1412 329)" opacity="0.53" clip-path="url(#clip-path-2)">
          <g id="Card_Desktop-2" data-name="Card Desktop" transform="translate(-1484 -338)">
            <rect id="Card" width="285" height="111" rx="13" transform="translate(1484 338)" fill="#fff" opacity="0.19"/>
            <g id="Image" transform="translate(1484 338)">
              <path id="Image-2" data-name="Image" d="M14,0H133a0,0,0,0,1,0,0V111a0,0,0,0,1,0,0H14A14,14,0,0,1,0,97V14A14,14,0,0,1,14,0Z" fill="#fff" opacity="0.19"/>
              <g id="Icon_feather-image" data-name="Icon feather-image" transform="translate(52.943 42)">
                <path id="Tracciato_1" data-name="Tracciato 1" d="M7.5,4.5h21a3,3,0,0,1,3,3v21a3,3,0,0,1-3,3H7.5a3,3,0,0,1-3-3V7.5a3,3,0,0,1,3-3Z" transform="translate(-4.5 -4.5)" fill="none" stroke="#fff" stroke-linecap="round" stroke-linejoin="round" stroke-width="3"/>
                <path id="Tracciato_2" data-name="Tracciato 2" d="M15,12.75a2.25,2.25,0,1,1-2.25-2.25A2.25,2.25,0,0,1,15,12.75Z" transform="translate(-4.5 -4.5)" fill="none" stroke="#fff" stroke-linecap="round" stroke-linejoin="round" stroke-width="3"/>
                <path id="Tracciato_3" data-name="Tracciato 3" d="M31.5,22.5,24,15,7.5,31.5" transform="translate(-4.5 -4.5)" fill="none" stroke="#fff" stroke-linecap="round" stroke-linejoin="round" stroke-width="3"/>
              </g>
            </g>
            <rect id="Text" width="56" height="9" rx="4.5" transform="translate(1636 374)" fill="#fff" opacity="0.32"/>
            <rect id="Title" width="106" height="9" rx="4.5" transform="translate(1636 358)" fill="#ffc41a"/>
          </g>
          <g id="Card_Desktop-3" data-name="Card Desktop" transform="translate(-1179 -338)">
            <rect id="Card-2" data-name="Card" width="285" height="111" rx="13" transform="translate(1484 338)" fill="#fff" opacity="0.19"/>
            <g id="Image-3" data-name="Image" transform="translate(1484 338)">
              <path id="Image-4" data-name="Image" d="M14,0H133a0,0,0,0,1,0,0V111a0,0,0,0,1,0,0H14A14,14,0,0,1,0,97V14A14,14,0,0,1,14,0Z" fill="#fff" opacity="0.19"/>
              <g id="Icon_feather-image-2" data-name="Icon feather-image" transform="translate(52.943 42)">
                <path id="Tracciato_1-2" data-name="Tracciato 1" d="M7.5,4.5h21a3,3,0,0,1,3,3v21a3,3,0,0,1-3,3H7.5a3,3,0,0,1-3-3V7.5a3,3,0,0,1,3-3Z" transform="translate(-4.5 -4.5)" fill="none" stroke="#fff" stroke-linecap="round" stroke-linejoin="round" stroke-width="3"/>
                <path id="Tracciato_2-2" data-name="Tracciato 2" d="M15,12.75a2.25,2.25,0,1,1-2.25-2.25A2.25,2.25,0,0,1,15,12.75Z" transform="translate(-4.5 -4.5)" fill="none" stroke="#fff" stroke-linecap="round" stroke-linejoin="round" stroke-width="3"/>
                <path id="Tracciato_3-2" data-name="Tracciato 3" d="M31.5,22.5,24,15,7.5,31.5" transform="translate(-4.5 -4.5)" fill="none" stroke="#fff" stroke-linecap="round" stroke-linejoin="round" stroke-width="3"/>
              </g>
            </g>
            <rect id="Text-2" data-name="Text" width="56" height="9" rx="4.5" transform="translate(1636 374)" fill="#fff" opacity="0.32"/>
            <rect id="Title-2" data-name="Title" width="106" height="9" rx="4.5" transform="translate(1636 358)" fill="#ffc41a"/>
          </g>
          <g id="Card_Desktop-4" data-name="Card Desktop" transform="translate(-1484 -207)">
            <rect id="Card-3" data-name="Card" width="285" height="111" rx="13" transform="translate(1484 338)" fill="#fff" opacity="0.19"/>
            <g id="Image-5" data-name="Image" transform="translate(1484 338)">
              <path id="Image-6" data-name="Image" d="M14,0H133a0,0,0,0,1,0,0V111a0,0,0,0,1,0,0H14A14,14,0,0,1,0,97V14A14,14,0,0,1,14,0Z" fill="#fff" opacity="0.19"/>
              <g id="Icon_feather-image-3" data-name="Icon feather-image" transform="translate(52.943 42)">
                <path id="Tracciato_1-3" data-name="Tracciato 1" d="M7.5,4.5h21a3,3,0,0,1,3,3v21a3,3,0,0,1-3,3H7.5a3,3,0,0,1-3-3V7.5a3,3,0,0,1,3-3Z" transform="translate(-4.5 -4.5)" fill="none" stroke="#fff" stroke-linecap="round" stroke-linejoin="round" stroke-width="3"/>
                <path id="Tracciato_2-3" data-name="Tracciato 2" d="M15,12.75a2.25,2.25,0,1,1-2.25-2.25A2.25,2.25,0,0,1,15,12.75Z" transform="translate(-4.5 -4.5)" fill="none" stroke="#fff" stroke-linecap="round" stroke-linejoin="round" stroke-width="3"/>
                <path id="Tracciato_3-3" data-name="Tracciato 3" d="M31.5,22.5,24,15,7.5,31.5" transform="translate(-4.5 -4.5)" fill="none" stroke="#fff" stroke-linecap="round" stroke-linejoin="round" stroke-width="3"/>
              </g>
            </g>
            <rect id="Text-3" data-name="Text" width="56" height="9" rx="4.5" transform="translate(1636 374)" fill="#fff" opacity="0.32"/>
            <rect id="Title-3" data-name="Title" width="106" height="9" rx="4.5" transform="translate(1636 358)" fill="#ffc41a"/>
          </g>
          <g id="Card_Desktop-5" data-name="Card Desktop" transform="translate(-1179 -207)">
            <rect id="Card-4" data-name="Card" width="285" height="111" rx="13" transform="translate(1484 338)" fill="#fff" opacity="0.19"/>
            <g id="Image-7" data-name="Image" transform="translate(1484 338)">
              <path id="Image-8" data-name="Image" d="M14,0H133a0,0,0,0,1,0,0V111a0,0,0,0,1,0,0H14A14,14,0,0,1,0,97V14A14,14,0,0,1,14,0Z" fill="#fff" opacity="0.19"/>
              <g id="Icon_feather-image-4" data-name="Icon feather-image" transform="translate(52.943 42)">
                <path id="Tracciato_1-4" data-name="Tracciato 1" d="M7.5,4.5h21a3,3,0,0,1,3,3v21a3,3,0,0,1-3,3H7.5a3,3,0,0,1-3-3V7.5a3,3,0,0,1,3-3Z" transform="translate(-4.5 -4.5)" fill="none" stroke="#fff" stroke-linecap="round" stroke-linejoin="round" stroke-width="3"/>
                <path id="Tracciato_2-4" data-name="Tracciato 2" d="M15,12.75a2.25,2.25,0,1,1-2.25-2.25A2.25,2.25,0,0,1,15,12.75Z" transform="translate(-4.5 -4.5)" fill="none" stroke="#fff" stroke-linecap="round" stroke-linejoin="round" stroke-width="3"/>
                <path id="Tracciato_3-4" data-name="Tracciato 3" d="M31.5,22.5,24,15,7.5,31.5" transform="translate(-4.5 -4.5)" fill="none" stroke="#fff" stroke-linecap="round" stroke-linejoin="round" stroke-width="3"/>
              </g>
            </g>
            <rect id="Text-4" data-name="Text" width="56" height="9" rx="4.5" transform="translate(1636 374)" fill="#fff" opacity="0.32"/>
            <rect id="Title-4" data-name="Title" width="106" height="9" rx="4.5" transform="translate(1636 358)" fill="#ffc41a"/>
          </g>
          <g id="Card_Desktop-6" data-name="Card Desktop" transform="translate(-1484 -76)">
            <rect id="Card-5" data-name="Card" width="285" height="111" rx="13" transform="translate(1484 338)" fill="#fff" opacity="0.19"/>
            <g id="Image-9" data-name="Image" transform="translate(1484 338)">
              <path id="Image-10" data-name="Image" d="M14,0H133a0,0,0,0,1,0,0V111a0,0,0,0,1,0,0H14A14,14,0,0,1,0,97V14A14,14,0,0,1,14,0Z" fill="#fff" opacity="0.19"/>
              <g id="Icon_feather-image-5" data-name="Icon feather-image" transform="translate(52.943 42)">
                <path id="Tracciato_1-5" data-name="Tracciato 1" d="M7.5,4.5h21a3,3,0,0,1,3,3v21a3,3,0,0,1-3,3H7.5a3,3,0,0,1-3-3V7.5a3,3,0,0,1,3-3Z" transform="translate(-4.5 -4.5)" fill="none" stroke="#fff" stroke-linecap="round" stroke-linejoin="round" stroke-width="3"/>
                <path id="Tracciato_2-5" data-name="Tracciato 2" d="M15,12.75a2.25,2.25,0,1,1-2.25-2.25A2.25,2.25,0,0,1,15,12.75Z" transform="translate(-4.5 -4.5)" fill="none" stroke="#fff" stroke-linecap="round" stroke-linejoin="round" stroke-width="3"/>
                <path id="Tracciato_3-5" data-name="Tracciato 3" d="M31.5,22.5,24,15,7.5,31.5" transform="translate(-4.5 -4.5)" fill="none" stroke="#fff" stroke-linecap="round" stroke-linejoin="round" stroke-width="3"/>
              </g>
            </g>
            <rect id="Text-5" data-name="Text" width="56" height="9" rx="4.5" transform="translate(1636 374)" fill="#fff" opacity="0.32"/>
            <rect id="Title-5" data-name="Title" width="106" height="9" rx="4.5" transform="translate(1636 358)" fill="#ffc41a"/>
          </g>
          <g id="Card_Desktop-7" data-name="Card Desktop" transform="translate(-1179 -76)">
            <rect id="Card-6" data-name="Card" width="285" height="111" rx="13" transform="translate(1484 338)" fill="#fff" opacity="0.19"/>
            <g id="Image-11" data-name="Image" transform="translate(1484 338)">
              <path id="Image-12" data-name="Image" d="M14,0H133a0,0,0,0,1,0,0V111a0,0,0,0,1,0,0H14A14,14,0,0,1,0,97V14A14,14,0,0,1,14,0Z" fill="#fff" opacity="0.19"/>
              <g id="Icon_feather-image-6" data-name="Icon feather-image" transform="translate(52.943 42)">
                <path id="Tracciato_1-6" data-name="Tracciato 1" d="M7.5,4.5h21a3,3,0,0,1,3,3v21a3,3,0,0,1-3,3H7.5a3,3,0,0,1-3-3V7.5a3,3,0,0,1,3-3Z" transform="translate(-4.5 -4.5)" fill="none" stroke="#fff" stroke-linecap="round" stroke-linejoin="round" stroke-width="3"/>
                <path id="Tracciato_2-6" data-name="Tracciato 2" d="M15,12.75a2.25,2.25,0,1,1-2.25-2.25A2.25,2.25,0,0,1,15,12.75Z" transform="translate(-4.5 -4.5)" fill="none" stroke="#fff" stroke-linecap="round" stroke-linejoin="round" stroke-width="3"/>
                <path id="Tracciato_3-6" data-name="Tracciato 3" d="M31.5,22.5,24,15,7.5,31.5" transform="translate(-4.5 -4.5)" fill="none" stroke="#fff" stroke-linecap="round" stroke-linejoin="round" stroke-width="3"/>
              </g>
            </g>
            <rect id="Text-6" data-name="Text" width="56" height="9" rx="4.5" transform="translate(1636 374)" fill="#fff" opacity="0.32"/>
            <rect id="Title-6" data-name="Title" width="106" height="9" rx="4.5" transform="translate(1636 358)" fill="#ffc41a"/>
          </g>
        </g>
        <g id="Componente_1_2" data-name="Componente 1 – 2" transform="translate(1375 283)">
          <g id="Griglia_di_ripetizione_1-2" data-name="Griglia di ripetizione 1" clip-path="url(#clip-path)">
            <g transform="translate(-1260 -454)">
              <rect id="Rettangolo_21-4" data-name="Rettangolo 21" width="24" height="2" rx="1" transform="translate(1260 454)" fill="#fff"/>
            </g>
            <g transform="translate(-1260 -446)">
              <rect id="Rettangolo_21-5" data-name="Rettangolo 21" width="24" height="2" rx="1" transform="translate(1260 454)" fill="#fff"/>
            </g>
            <g transform="translate(-1260 -438)">
              <rect id="Rettangolo_21-6" data-name="Rettangolo 21" width="24" height="2" rx="1" transform="translate(1260 454)" fill="#fff"/>
            </g>
          </g>
        </g>
      </g>
      <g id="wireframe">
        <g id="Raggruppa_3" data-name="Raggruppa 3" transform="translate(-233.482 -113.5)" opacity="0.27">
          <g id="Rettangolo_22" data-name="Rettangolo 22" transform="translate(1247.482 490.5)" fill="none" stroke="#fff" stroke-width="2" stroke-dasharray="20 11">
            <rect width="163" height="200" rx="13" stroke="none"/>
            <rect x="1" y="1" width="161" height="198" rx="12" fill="none"/>
          </g>
          <g id="Rettangolo_23" data-name="Rettangolo 23" transform="translate(1247.482 490.5)" fill="none" stroke="#fff" stroke-width="2" stroke-dasharray="20 11">
            <path d="M9,0H154a9,9,0,0,1,9,9V120a0,0,0,0,1,0,0H0a0,0,0,0,1,0,0V9A9,9,0,0,1,9,0Z" stroke="none"/>
            <path d="M9,1H154a8,8,0,0,1,8,8V118a1,1,0,0,1-1,1H2a1,1,0,0,1-1-1V9A8,8,0,0,1,9,1Z" fill="none"/>
          </g>
          <g id="Icon_feather-image-7" data-name="Icon feather-image" transform="translate(1304.609 526.036)">
            <path id="Tracciato_1-7" data-name="Tracciato 1" d="M9.905,4.5H47.743a5.405,5.405,0,0,1,5.405,5.405V47.743a5.405,5.405,0,0,1-5.405,5.405H9.905A5.405,5.405,0,0,1,4.5,47.743V9.905A5.405,5.405,0,0,1,9.905,4.5Z" transform="translate(-4.5 -4.5)" fill="none" stroke="#fff" stroke-linecap="round" stroke-linejoin="round" stroke-width="2" stroke-dasharray="20 11"/>
            <path id="Tracciato_2-7" data-name="Tracciato 2" d="M18.608,14.554A4.054,4.054,0,1,1,14.554,10.5,4.054,4.054,0,0,1,18.608,14.554Z" transform="translate(0.311 0.311)" fill="none" stroke="#fff" stroke-linecap="round" stroke-linejoin="round" stroke-width="2" stroke-dasharray="20 11"/>
            <path id="Tracciato_3-7" data-name="Tracciato 3" d="M50.743,28.514,37.23,15,7.5,44.73" transform="translate(-2.095 3.919)" fill="none" stroke="#fff" stroke-linecap="round" stroke-linejoin="round" stroke-width="2" stroke-dasharray="20 11"/>
          </g>
          <g id="Rettangolo_24" data-name="Rettangolo 24" transform="translate(1257.482 621.5)" fill="none" stroke="#fff" stroke-width="2" stroke-dasharray="20 11">
            <rect width="128" height="16" rx="5" stroke="none"/>
            <rect x="1" y="1" width="126" height="14" rx="4" fill="none"/>
          </g>
          <g id="Rettangolo_25" data-name="Rettangolo 25" transform="translate(1257.482 650.5)" fill="none" stroke="#fff" stroke-width="2" stroke-dasharray="20 11">
            <rect width="96" height="16" rx="5" stroke="none"/>
            <rect x="1" y="1" width="94" height="14" rx="4" fill="none"/>
          </g>
        </g>
        <path id="Tracciato_4" data-name="Tracciato 4" d="M1173.666,381.246l160.832,111.5" fill="none" stroke="#707070" stroke-width="1" stroke-dasharray="3"/>
        <path id="Tracciato_6" data-name="Tracciato 6" d="M807.6,632.552l526.9-139.807" transform="translate(361 -57)" fill="none" stroke="#707070" stroke-width="1" stroke-dasharray="3"/>
        <path id="Tracciato_7" data-name="Tracciato 7" d="M936.022,539.562,1334.5,492.745" transform="translate(88 -162)" fill="none" stroke="#707070" stroke-width="1" stroke-dasharray="3"/>
        <path id="Tracciato_5" data-name="Tracciato 5" d="M1168.26,382.012l229.692,23.636" transform="translate(-147 194)" fill="none" stroke="#707070" stroke-width="1" stroke-dasharray="3"/>
      </g>
      <g id="phone">
        <g id="Rettangolo_20" data-name="Rettangolo 20" transform="translate(1225 426)" fill="#290c2d" stroke="#cecece" stroke-width="1">
          <rect width="246" height="460" rx="36" stroke="none"/>
          <rect x="0.5" y="0.5" width="245" height="459" rx="35.5" fill="none"/>
        </g>
        <g id="post_card" data-name="post card" transform="translate(1247 752)" clip-path="url(#clip-path-4)">
          <g id="post_card-2" data-name="post card" transform="translate(-1247 -752)">
            <rect id="Rettangolo_22-2" data-name="Rettangolo 22" width="91" height="111" rx="13" transform="translate(1247 752)" fill="#502f55"/>
            <path id="Rettangolo_23-2" data-name="Rettangolo 23" d="M13,0H78A13,13,0,0,1,91,13V67a0,0,0,0,1,0,0H0a0,0,0,0,1,0,0V13A13,13,0,0,1,13,0Z" transform="translate(1247 752)" fill="#fff" opacity="0.19"/>
            <g id="image_ico" data-name="image ico" transform="translate(1274.473 767.5)">
              <path id="Tracciato_1-8" data-name="Tracciato 1" d="M7.5,4.5h21a3,3,0,0,1,3,3v21a3,3,0,0,1-3,3H7.5a3,3,0,0,1-3-3V7.5a3,3,0,0,1,3-3Z" fill="none" stroke="#290c2d" stroke-linecap="round" stroke-linejoin="round" stroke-width="3"/>
              <path id="Tracciato_2-8" data-name="Tracciato 2" d="M15,12.75a2.25,2.25,0,1,1-2.25-2.25A2.25,2.25,0,0,1,15,12.75Z" fill="none" stroke="#290c2d" stroke-linecap="round" stroke-linejoin="round" stroke-width="3"/>
              <path id="Tracciato_3-8" data-name="Tracciato 3" d="M31.5,22.5,24,15,7.5,31.5" fill="none" stroke="#290c2d" stroke-linecap="round" stroke-linejoin="round" stroke-width="3"/>
            </g>
            <rect id="Rettangolo_24-2" data-name="Rettangolo 24" width="71" height="9" rx="4.5" transform="translate(1253 825)" fill="#ffb23a"/>
            <rect id="Rettangolo_25-2" data-name="Rettangolo 25" width="53" height="9" rx="4.5" transform="translate(1253 841)" fill="#fff" opacity="0.32"/>
          </g>
          <g id="post_card-3" data-name="post card" transform="translate(-1136 -752)">
            <rect id="Rettangolo_22-3" data-name="Rettangolo 22" width="91" height="111" rx="13" transform="translate(1247 752)" fill="#502f55"/>
            <path id="Rettangolo_23-3" data-name="Rettangolo 23" d="M13,0H78A13,13,0,0,1,91,13V67a0,0,0,0,1,0,0H0a0,0,0,0,1,0,0V13A13,13,0,0,1,13,0Z" transform="translate(1247 752)" fill="#fff" opacity="0.19"/>
            <g id="image_ico-2" data-name="image ico" transform="translate(1274.473 767.5)">
              <path id="Tracciato_1-9" data-name="Tracciato 1" d="M7.5,4.5h21a3,3,0,0,1,3,3v21a3,3,0,0,1-3,3H7.5a3,3,0,0,1-3-3V7.5a3,3,0,0,1,3-3Z" fill="none" stroke="#290c2d" stroke-linecap="round" stroke-linejoin="round" stroke-width="3"/>
              <path id="Tracciato_2-9" data-name="Tracciato 2" d="M15,12.75a2.25,2.25,0,1,1-2.25-2.25A2.25,2.25,0,0,1,15,12.75Z" fill="none" stroke="#290c2d" stroke-linecap="round" stroke-linejoin="round" stroke-width="3"/>
              <path id="Tracciato_3-9" data-name="Tracciato 3" d="M31.5,22.5,24,15,7.5,31.5" fill="none" stroke="#290c2d" stroke-linecap="round" stroke-linejoin="round" stroke-width="3"/>
            </g>
            <rect id="Rettangolo_24-3" data-name="Rettangolo 24" width="71" height="9" rx="4.5" transform="translate(1253 825)" fill="#ffb23a"/>
            <rect id="Rettangolo_25-3" data-name="Rettangolo 25" width="53" height="9" rx="4.5" transform="translate(1253 841)" fill="#fff" opacity="0.32"/>
          </g>
        </g>
        <text id="vnt." transform="translate(1449 468)" fill="#ffb23a" font-size="26" font-family="SFProDisplay-Heavy, SF Pro Display" font-weight="800"><tspan x="-47.519" y="0">vnt.</tspan></text>
        <g id="hero">
          <path id="Tracciato_8" data-name="Tracciato 8" d="M13,0H189a13,13,0,0,1,13,13V225a13,13,0,0,1-13,13H13A13,13,0,0,1,0,225V13A13,13,0,0,1,13,0Z" transform="translate(1247 492)" fill="#f8c4ff" opacity="0.19"/>
          <rect id="Rettangolo_55" data-name="Rettangolo 55" width="148" height="9" rx="4.5" transform="translate(1266 620)" fill="#89798c"/>
          <rect id="Rettangolo_60" data-name="Rettangolo 60" width="148" height="9" rx="4.5" transform="translate(1266 594)" fill="#beb0c0"/>
          <rect id="Rettangolo_56" data-name="Rettangolo 56" width="97" height="9" rx="4.5" transform="translate(1266 638)" fill="#89798c"/>
          <rect id="Rettangolo_59" data-name="Rettangolo 59" width="71" height="18" rx="9" transform="translate(1266 686)" fill="#ffb23a"/>
        </g>
      </g>
      <g id="floating_code" data-name="floating code">
        <g id="floating_code-2" data-name="floating code" transform="translate(-55 88)">
          <rect id="Rettangolo_28" data-name="Rettangolo 28" width="57" height="11" rx="5.5" transform="translate(932 607)" fill="#ffb23a" opacity="0.25"/>
          <rect id="Rettangolo_32" data-name="Rettangolo 32" width="57" height="10" rx="5" transform="translate(935 667)" fill="#ffb23a" opacity="0.25"/>
          <rect id="Rettangolo_29" data-name="Rettangolo 29" width="149" height="11" rx="5.5" transform="translate(949 622)" fill="#fff" opacity="0.14"/>
          <rect id="Rettangolo_33" data-name="Rettangolo 33" width="126" height="11" rx="5.5" transform="translate(952 681)" fill="#fff" opacity="0.14"/>
          <rect id="Rettangolo_30" data-name="Rettangolo 30" width="84" height="11" rx="5.5" transform="translate(949 637)" fill="#fff" opacity="0.14"/>
          <rect id="Rettangolo_34" data-name="Rettangolo 34" width="58" height="11" rx="5.5" transform="translate(952 696)" fill="#fff" opacity="0.14"/>
          <rect id="Rettangolo_31" data-name="Rettangolo 31" width="54" height="11" rx="5.5" transform="translate(935 652)" fill="#ffb23a" opacity="0.25"/>
          <rect id="Rettangolo_35" data-name="Rettangolo 35" width="54" height="11" rx="5.5" transform="translate(938 711)" fill="#ffb23a" opacity="0.25"/>
        </g>
        <g id="Raggruppa_5" data-name="Raggruppa 5" transform="translate(699 228)">
          <rect id="Rettangolo_28-2" data-name="Rettangolo 28" width="57" height="11" rx="5.5" transform="translate(932 607)" fill="#ffb23a" opacity="0.25"/>
          <rect id="Rettangolo_32-2" data-name="Rettangolo 32" width="57" height="10" rx="5" transform="translate(935 667)" fill="#ffb23a" opacity="0.25"/>
          <rect id="Rettangolo_36" data-name="Rettangolo 36" width="57" height="10" rx="5" transform="translate(951 711)" fill="#ffb23a" opacity="0.25"/>
          <rect id="Rettangolo_29-2" data-name="Rettangolo 29" width="149" height="11" rx="5.5" transform="translate(949 622)" fill="#fff" opacity="0.14"/>
          <rect id="Rettangolo_33-2" data-name="Rettangolo 33" width="126" height="11" rx="5.5" transform="translate(952 681)" fill="#fff" opacity="0.14"/>
          <rect id="Rettangolo_37" data-name="Rettangolo 37" width="126" height="11" rx="5.5" transform="translate(968 725)" fill="#fff" opacity="0.14"/>
          <rect id="Rettangolo_30-2" data-name="Rettangolo 30" width="84" height="11" rx="5.5" transform="translate(949 637)" fill="#fff" opacity="0.14"/>
          <rect id="Rettangolo_34-2" data-name="Rettangolo 34" width="58" height="11" rx="5.5" transform="translate(952 696)" fill="#fff" opacity="0.14"/>
          <rect id="Rettangolo_38" data-name="Rettangolo 38" width="58" height="11" rx="5.5" transform="translate(968 740)" fill="#fff" opacity="0.14"/>
          <rect id="Rettangolo_31-2" data-name="Rettangolo 31" width="54" height="11" rx="5.5" transform="translate(935 652)" fill="#ffb23a" opacity="0.25"/>
          <rect id="Rettangolo_35-2" data-name="Rettangolo 35" width="54" height="11" rx="5.5" transform="translate(937 770)" fill="#ffb23a" opacity="0.25"/>
          <rect id="Rettangolo_39" data-name="Rettangolo 39" width="54" height="11" rx="5.5" transform="translate(954 755)" fill="#ffb23a" opacity="0.25"/>
        </g>
        <g id="Raggruppa_6" data-name="Raggruppa 6" transform="translate(406 -570)">
          <rect id="Rettangolo_28-3" data-name="Rettangolo 28" width="40" height="11" rx="5.5" transform="translate(932 607)" fill="#ffb23a" opacity="0.25"/>
          <rect id="Rettangolo_29-3" data-name="Rettangolo 29" width="118" height="11" rx="5.5" transform="translate(949 622)" fill="#fff" opacity="0.14"/>
          <rect id="Rettangolo_30-3" data-name="Rettangolo 30" width="146" height="11" rx="5.5" transform="translate(949 637)" fill="#fff" opacity="0.14"/>
          <rect id="Rettangolo_31-3" data-name="Rettangolo 31" width="38" height="11" rx="5.5" transform="translate(935 652)" fill="#ffb23a" opacity="0.25"/>
        </g>
      </g>
    </g>
    <rect id="fade" width="720" height="1080" transform="translate(1203)" fill="url(#linear-gradient)"/>
  </g>
</svg>
